<svg xmlns="http://www.w3.org/2000/svg" width="275" height="158"><path fill-rule="evenodd" fill="#029370" d="M223.537 144.793a51.616 51.616 0 01-13.807-1.681 30 30 0 00-23.447 3.494c-10.735 6.644-23.356 10.55-36.901 10.73-16.076.212-30.989-4.858-43.088-13.599-8.993-6.498-20.828-7.482-30.688-2.393a51.343 51.343 0 01-22.934 5.708c-28.955.383-52.65-23.167-52.23-52.298.281-19.447 11.485-36.358 27.732-44.874-1.744.166-4.106.199-6.564-.337-4.447-.969-5.344-3.341-4.761-4.998.584-1.657 2.779-2.97 6.873-1.001 2.884 1.388 4.849 3.107 6.011 4.327.064-1.687.4-4.285 1.635-7.226 1.759-4.189 4.274-4.661 5.808-3.807 1.535.853 2.437 3.224-.249 6.898-1.162 1.589-2.505 2.867-3.715 3.847a51.047 51.047 0 0117.689-3.562 51.704 51.704 0 0111.238.987c8.28 1.654 16.642-2.218 20.901-9.505C95.434 14.297 118.63.234 144.946.717c24.217.445 45.339 13.106 57.598 31.993 3.865 5.955 10.549 9.473 17.642 9.109.905-.047 1.816-.07 2.733-.069 27.982.028 50.994 22.661 51.481 50.622.497 28.553-22.32 52.044-50.863 52.421z"/></svg>