<svg xmlns="http://www.w3.org/2000/svg" width="275" height="158"><path fill-rule="evenodd" fill="#029370" d="M274.9 92.372c.497 28.553-22.32 52.044-50.863 52.421a51.616 51.616 0 01-13.807-1.681 30 30 0 00-23.447 3.494c-10.735 6.644-23.356 10.55-36.901 10.73-16.076.212-30.989-4.858-43.088-13.599-8.993-6.498-20.828-7.482-30.688-2.393a51.343 51.343 0 01-22.934 5.708c-28.955.383-52.65-23.167-52.23-52.298.398-27.623 22.823-50.155 50.46-50.733a51.705 51.705 0 0111.237.987c8.28 1.654 16.642-2.218 20.901-9.505C95.934 14.297 119.13.234 145.446.717c24.217.445 45.339 13.106 57.598 31.993 2.753 4.241 6.939 7.236 11.68 8.483-1.162-.711-2.413-1.614-3.574-2.742-3.265-3.17-2.775-5.658-1.405-6.758 1.37-1.099 3.928-1.056 6.365 2.778 1.714 2.695 2.479 5.194 2.823 6.847.945-1.4 2.602-3.428 5.202-5.274 3.705-2.629 6.09-1.703 6.943-.168.853 1.535.368 4.025-3.853 5.727-.227.092-.454.174-.681.255 26.549 1.635 47.887 23.602 48.356 50.514z"/></svg>