<svg xmlns="http://www.w3.org/2000/svg" width="275" height="157"><path fill-rule="evenodd" fill="#029370" d="M223.944 144.293a51.796 51.796 0 01-13.832-1.681c-7.993-2.096-16.464-.847-23.49 3.494-10.754 6.644-23.398 10.55-36.968 10.729-16.105.213-31.046-4.857-43.166-13.598-9.01-6.498-20.866-7.482-30.744-2.393-6.892 3.55-14.693 5.599-22.976 5.708C23.76 146.935.022 123.385.443 94.255c.343-23.767 17.026-43.749 39.309-49.239a20.196 20.196 0 01-3.876-1.017c-4.264-1.61-4.805-4.088-3.983-5.642.821-1.553 3.189-2.531 6.957.018 2.646 1.789 4.348 3.779 5.323 5.157.311-1.66 1.026-4.178 2.68-6.905 2.359-3.886 4.92-3.984 6.315-2.914 1.396 1.069 1.942 3.546-1.26 6.786-1.343 1.36-2.817 2.412-4.13 3.197a48.8 48.8 0 013.216-.175 51.887 51.887 0 0111.258.987c8.295 1.654 16.673-2.218 20.939-9.505C95.608 13.797 118.846-.266 145.21.217c24.261.445 45.422 13.106 57.703 31.993 3.872 5.955 10.569 9.473 17.674 9.109a51.83 51.83 0 012.739-.069c28.032.028 51.086 22.661 51.574 50.622.498 28.553-22.361 52.044-50.956 52.421z"/></svg>